<?xml version="1.0" encoding="utf-8"?>
<!-- Generator: Adobe Illustrator 17.1.0, SVG Export Plug-In . SVG Version: 6.00 Build 0)  -->
<!DOCTYPE svg PUBLIC "-//W3C//DTD SVG 1.1//EN" "http://www.w3.org/Graphics/SVG/1.1/DTD/svg11.dtd">
<svg version="1.1" id="Layer_1" xmlns="http://www.w3.org/2000/svg" xmlns:xlink="http://www.w3.org/1999/xlink" x="0px" y="0px"
	 viewBox="0 0 500 2000" enable-background="new 0 0 500 2000" xml:space="preserve">
<path fill="none" stroke="#43A8DF" stroke-miterlimit="10" d="M446.2,974.1c-0.1-0.1-12.6-13.4-16.1-26.6l-0.5-2.1l-0.7,2.1
	c0,0.1-6.6,19-15.9,26.4l-0.7,0.5l5.1,3.5v45.8h-7.6v-57.1l4.7-4.5l-0.8-0.4c-0.3-0.1-21.3-11.8-21.3-35.7h-1.3
	c0,0.3-2.5,29.3-21.4,35.6l-1,0.4l5.8,5.6v44h-81v-103h-13v8.4h-10.4v-8.4h-14.4v8.9h-12.2v-8.4h-15.9v8h-9.4v-42.8
	c3.3-0.3,19-1,22.2,4.9l1.2,2.4V855l-0.5-0.1c-0.7-0.1-15.4-4.1-24.3-3.8v-7.9h-3.7v32.3h-21.5v16.1l2.4,8v112.1H90.3v-52.5l2.8-3.8
	v-21H56.2v23.5l3.8,2.8v169.9h1.3V960l-3.8-2.8v-21.5h34.3V955l-2.8,3.8v54.3h106V899.5l-2.4-8v-14.7h21.5v-32.3h1v8h0.7
	c7.9-0.4,21.4,2.9,24.1,3.5v21c-5.6-5.4-22-3.9-22.8-3.9h-0.7v45.3h12.1v-8h13.3v8.4h14.8v-8.9h11.8v8.4h13v-8.4h10.4v102.9h83.6
	v-45.8l-4.6-4.5c13.6-5.2,18.6-21.7,20.5-30.4c2.6,18.2,17.2,28.3,20.7,30.4l-3.8,3.5v58.9h10.2v-47.8l-4.2-3
	c7.6-6.4,13.1-19.6,15-24.5c3.7,11.4,12.9,22,15.2,24.7l-4.3,2.4v153.9h1.3v-153l4.5-2.4l0.7-0.5L446.2,974.1z"/>
</svg>
