<?xml version="1.0" encoding="utf-8"?>
<!-- Generator: Adobe Illustrator 16.2.1, SVG Export Plug-In . SVG Version: 6.00 Build 0)  -->
<!DOCTYPE svg PUBLIC "-//W3C//DTD SVG 1.0//EN" "http://www.w3.org/TR/2001/REC-SVG-20010904/DTD/svg10.dtd">
<svg version="1.0" id="Layer_1" xmlns="http://www.w3.org/2000/svg" xmlns:xlink="http://www.w3.org/1999/xlink" x="0px" y="0px"
	 width="381px" height="269px" viewBox="0 0 381 269" enable-background="new 0 0 381 269" xml:space="preserve">
<path fill="none" stroke="#43A8DF" stroke-miterlimit="10" d="M49.834,233.834v-129.5L48,101.5V85h27.167v15.833l-1.833,2.833v40.5
	h74.833v-86.5l-1.833-5.5V40h16V15.334h2v6c7.833,0,19.333,3.167,19.333,3.167v18.333c-5.167-6.667-18.667-4.5-18.667-4.5v34h9.333
	v-6.167h10v6.167h11v-6.5h9.333v6.333h9.834v-6.5h8.5v78h63.166v-34l-4-3.833c15.834-9.333,16.336-26.5,16.336-26.5
	c3,20.667,16.831,26.5,16.831,26.5l-3.5,3.167v43.833h6.667V117.5l-3.334-2.667c8.5-7.167,11.834-20.667,11.834-20.667
	c0.834,7.667,12.5,21.167,12.5,21.167l-3.5,1.833v116.667"/>
</svg>
