<?xml version="1.0" encoding="utf-8"?>
<!-- Generator: Adobe Illustrator 17.1.0, SVG Export Plug-In . SVG Version: 6.00 Build 0)  -->
<!DOCTYPE svg PUBLIC "-//W3C//DTD SVG 1.1//EN" "http://www.w3.org/Graphics/SVG/1.1/DTD/svg11.dtd">
<svg version="1.1" id="Layer_1" xmlns="http://www.w3.org/2000/svg" xmlns:xlink="http://www.w3.org/1999/xlink" x="0px" y="0px"
	 viewBox="0.8 177.8 611.2 436.6" enable-background="new 0.8 177.8 611.2 436.6" xml:space="preserve">
<path fill="#72D3FF" d="M249.4,177.8h1.4c13.7,6.9,27,14.7,38.3,25.2c0,6,0.2,12.1,0.9,18.1c-11-8-24.7-10.6-38.1-9.6
	c1.2,19-2.8,37.8-1.8,56.8c4.8,0,9.4,0,14.2,0c0,3,0,5.9,0,8.9c2.3,0,4.8,0,7.1,0c0-3,0-5.9,0-8.9c4.8,0,9.4,0,14.2,0
	c0,2.3,0,4.8,0,7.1c3.5,0,7.1,0,10.6,0c0-2.3,0-4.8,0-7.1c4.8,0,9.4,0,14.2,0c0,3,0,5.9,0,8.9c1.2,0,3.9,0,5.3,0c0-3,0-5.9,0-8.9
	c4.8,0,9.4,0,14.2,0c0,3,0,5.9,0,8.9c2.3,0,4.8,0,7.1,0c0-3,0-5.9,0-8.9c4.8,0,9.4,0,14.2,0c0,3,0,5.9,0,8.9c2.3,0,4.8,0,7.1,0
	c0-3,0-5.9,0-8.9c3.5,0,7.1,0,10.6,0c-0.4,34.9,1.2,69.7,1.8,104.7c0,19,0,37.8,0,56.8c42.6,0,85.1,0,127.7,0
	c0-21.3,0.2-42.6-0.2-64c0.4-4.4-3-7.6-5.7-10.8c6.7-5.7,13.8-11.4,18.1-19.2c6.7-11.9,8.5-25.7,10.5-39c-1.4,0.2-4.4,0.9-5.9,1.1
	c3-4.8,5.7-9.8,8.5-14.5c0.5,1.8,1.6,5.5,2.1,7.3c-2.1,1.2-4.1,2.5-6,3.9c4.1,0.4,8,0.4,12.1,0.5c0,1.1,0,3,0,4.1
	c-2.3-0.9-4.8-1.6-7.1-2.3c3,16.3,5.9,33.9,16.7,47.2c3.9,5.1,9.8,7.8,15.8,9.8c-3.2,5.3-5.9,11.4-5.7,17.7
	c-0.4,26.6,0,53.2-0.2,79.8c4.1,0,8.2,0,12.4,0c0-24.8,0-49.7,0-74.5c-2.7,0.4-5.5,0.7-8.2,1.1c16-14,29.8-33.9,27.9-56.1
	c0.9,0,2.7,0,3.5,0c-1.4,20.6,8.9,41.3,24.8,54.1v1.2c-3,0-5.9-0.2-8.9-0.2c0,79.1,0,158.4,0,237.5h-1.8c0-79.8,0-159.7,0-239.5
	c1.1,0,3.4-0.2,4.6-0.4c-9.8-9.9-16.3-22.4-20.6-35.7c-4.4,12.8-11.4,24.7-20.9,34.2c0.9,2.8,1.6,5.9,1.4,8.9
	c-0.2,23.6,0,47.2-0.2,71c-5.3,0-10.6,0-16,0c0-27.9,0.2-55.7,0-83.4c-0.2-5,1.4-9.6,3.2-14.2c-19.5-8.7-25.4-31.2-29.3-50.2
	c-3.4,9.6-4.3,19.9-9,29.1c-3.7,8.3-10.6,14.5-17.4,20.6c4.1,7.3,2.8,15.6,2.8,23.6c0,17.7,0,35.5,0,53.4c-43.8,0-87.5,0-131.3,0
	c-0.5-26.1-1.2-52-1.8-78.1c0-27.9,0-55.7,0-83.4c-2.3,0-4.8,0-7.1,0c0,3,0,5.9,0,8.9c-3.5,0-7.1,0-10.6,0c0-3,0-5.9,0-8.9
	c-3.5,0-7.1,0-10.6,0c0,3,0,5.9,0,8.9c-3.5,0-7.1,0-10.6,0c0-3,0-5.9,0-8.9c-3.5,0-7.1,0-10.6,0c0,3,0,5.9,0,8.9c-3,0-5.9,0-8.9,0
	c0-3,0-5.9,0-8.9c-3.5,0-7.1,0-10.6,0c0,2.3,0,4.8,0,7.1c-4.8,0-9.4,0-14.2,0c0-2.3,0-4.8,0-7.1c-3.5,0-7.1,0-10.6,0
	c0,3,0,5.9,0,8.9c-3.5,0-7.1,0-10.6,0c0-3,0-5.9,0-8.9c-4.8,0-9.4,0-14.2,0c0.4-11.5-0.9-23.1,0.9-34.4c0.9-5.7,0.9-11.4,0.9-17
	c-3.5,0-7.1,0-10.6,0c0-2.3,0-4.8,0-7.1c-0.9,0-2.5,0-3.4,0c0,1.4,0,4.1-0.2,5.3c-4.1,0-8.3,0-12.4,0c0-1.4,0-4.1-0.2-5.3
	c-0.9,0-2.5,0-3.4,0c0,2.1-0.2,4.4-0.2,6.6c-2.3,2.5-5,4.6-6.7,7.6c-1.1,5.3,0.2,10.6,1.6,15.8c2.8,9.8,1.1,20.2,1.6,30.3
	c0.4,52.7-0.9,105.2-1.8,157.9c-53.7,0-107.7,0-161.4,0c0-28.9,0-57.8,0-86.6c0.9-0.7,2.7-2,3.5-2.7c0-7.6,0-15.3,0.2-23.1
	c-3.2-2.3-6.4-5-10.6-4.6c-11.4-0.2-22.7-0.4-33.9,0c-4.8-0.4-8.9,3.7-8.5,8.5c0.4,8.3-1.8,17.9,3.5,25.4c0.2,30.9,0.2,61.6,0,92.4
	c-1.8,3-3.7,6-3.4,9.6c-0.2,55,0,110,0,165h-2c0-49.1,0-98.1,0-147.2c0-6.4-1.1-12.9-0.9-19.3c1.1-5.5,4.8-10.3,4.3-16.1
	c0-25.4,0-50.9,0-76.3c0.4-6.2-3.7-11.5-3.7-17.7c-0.2-9-3.2-20.2,5.3-26.8c14.4-1.1,28.6-0.5,42.9,0.2c3.5,0.2,6.9,2.1,8.5,5.3
	c1.6,8.5,0.5,17.4,0.2,26.1c-0.9,0.7-2.7,2.1-3.4,3c-0.2,27.7,0,55.2,0,82.8c52.7,0,105.2,0,157.9,0c-0.2-56.8,0.4-113.5,1.8-170.3
	c0.9-8.5-3.7-16.3-3.5-24.8c0-6.6,0.2-12.9,0.2-19.5c0.9,0,2.7,0,3.7,0c-0.7,2.7-1.4,5.3-2.1,7.8c1.8-1.6,3.7-3,5.5-4.6
	c0-2.3,0-4.4,0-6.7c2.3,0,4.8,0,7.1,0c0,1.4,0,3.9,0.2,5.3c2.8,0,5.9,0,8.7,0c0-1.4,0-3.9,0.2-5.3c2.3,0,4.8,0,7.1,0
	c0,2.3,0,4.8,0,7.1c1.2,0,3.9,0,5.1,0c-0.4-1.6-0.9-4.8-1.2-6.4c1.6,1.6,3.2,3,4.8,4.6C249.8,202.6,250.7,190.2,249.4,177.8z"/>
<path fill="#14B6FF" d="M221.9,244.9c2.3,0.5,4.8,1.1,7.1,1.6c-0.2,6.9-0.2,13.7,0,20.6c-2.3,0.5-4.8,1.1-7.1,1.6
	C221.6,260.7,221.6,252.8,221.9,244.9z"/>
<path fill="#14B6FF" d="M234.3,244.9c2.3,0.5,4.8,1.1,7.1,1.6c-0.2,6.9-0.2,13.7,0,20.6c-2.3,0.5-4.8,1.1-7.1,1.4
	C234.2,260.7,234,252.8,234.3,244.9z"/>
<path fill="#1EB9FF" d="M289.1,327c1.2,0,3.9,0,5.1,0c0,2.3,0,4.6,0,6.9c-1.4,0-3.9,0-5.3,0C289.1,331.4,289.1,329.1,289.1,327z"/>
<path fill="#33C0FF" d="M284.2,328.9c2.8,0,2.1,5-0.4,5.1C280.8,334.1,281.9,329.3,284.2,328.9z"/>
<path fill="#14B6FF" d="M296.4,329.5c2.1-1.4,5.7,2,4.4,4.1c-1.1,0-3-0.2-3.9-0.4C296.8,332.3,296.6,330.5,296.4,329.5z"/>
<path fill="#22BAFF" d="M280.1,338.7c3-1.1,6.2-1.1,9.2,0c-0.2,5.1-0.2,10.5,0,15.6c-3,0.9-6.2,1.1-9-0.2
	C280.3,349,280.3,343.8,280.1,338.7z"/>
<path fill="#22BAFF" d="M292.5,338.7c3-1.2,6.2-1.2,9.2,0c-0.2,5.1-0.2,10.3,0,15.4c-3,1.1-6.2,1.1-9,0
	C292.7,348.8,292.7,343.8,292.5,338.7z"/>
<path fill="#0BB3FF" d="M20,343.3c2.5-1.4,5.5-0.2,4.8,3c0,10.1,0.4,20.2-0.2,30.2c0.4,2.5-5.1,2.5-4.8,0
	C19.3,365.5,19,354.3,20,343.3z"/>
<path fill="#0BB3FF" d="M37.8,343.3c2.5-1.2,5.3-0.2,4.8,3c0,10.1,0.4,20.2-0.2,30.2c0.4,2.7-5.1,2.5-4.8,0.2
	C37.3,365.5,36.7,354.3,37.8,343.3z"/>
<path fill="#1FBAFF" d="M280.1,360.2c3-1.6,6.2-1.6,9.2,0c-0.2,6.7-0.2,13.5,0,20c-3,1.6-6.2,1.6-9.2,0
	C280.3,373.6,280.3,366.9,280.1,360.2z"/>
<path fill="#1FBAFF" d="M292.5,360.2c2.8-1.6,6.2-1.6,9.2,0c-0.2,6.7-0.2,13.5,0,20.2c-3,1.6-6.2,1.6-9.2,0
	C292.7,373.6,292.7,366.9,292.5,360.2z"/>
<path fill="#11B5FF" d="M510.7,377.7c3-1.1,6-1.1,9-0.2c-0.2,12.8-0.2,25.7,0,38.5c-2.8,0.7-6.2,2.1-8.7-0.4
	C510.5,403.1,511.2,390.3,510.7,377.7z"/>
<path fill="#11B5FF" d="M532,377.7c3-1.1,6-1.1,9,0c-0.4,12.8,0.4,25.4-0.4,38.1c-2.5,2.5-5.9,1.1-8.7,0.4
	C532.2,403.3,532.2,390.5,532,377.7z"/>
<path fill="#0BB3FF" d="M575.6,380.7c1.8-2.5,4.4,0.2,4.3,2.5c0.2,15.1,0.2,30,0,45.1c0.4,3.2-3.7,4.6-5,1.4
	c-0.7-13.7,0-27.3-0.4-40.8C575.1,386.2,574,383.1,575.6,380.7z"/>
<path fill="#08B2FF" d="M587.3,380.2c1.2,0,3.7,0,5,0c0.4,17,0.4,34.2,0,51.3c-1.2,0-3.7,0-5,0C587,414.3,587,397.2,587.3,380.2z"/>
<path fill="#1FBAFF" d="M280.1,386.8c3-1.6,6.2-1.6,9.2,0c-0.2,6.7-0.2,13.5,0,20.2c-3,1.6-6.2,1.6-9.2,0
	C280.3,400.3,280.3,393.5,280.1,386.8z"/>
<path fill="#1FBAFF" d="M292.5,387c2.8-1.8,6.2-1.8,9.2-0.2c-0.2,6.7-0.2,13.5,0,20c-3,1.6-6.2,1.6-9,0
	C292.7,400.3,292.7,393.7,292.5,387z"/>
<path fill="#0BB3FF" d="M20.2,392.8c2.3-1.2,5.3,0,4.6,3c0,10.1,0.4,20.2-0.2,30.2c0.4,2.7-5.1,2.5-4.8,0
	C19.5,415.2,18.8,403.8,20.2,392.8z"/>
<path fill="#0BB3FF" d="M37.8,393c2.3-1.4,5.3-0.2,4.8,2.8c0,10.1,0.5,20.2-0.2,30.3c0.4,2.5-5.1,2.3-4.8-0.2
	C37.1,415.2,36.9,404,37.8,393z"/>
<path fill="#1BB8FF" d="M266.1,436.6c3.5-3,6.9-5.9,10.5-8.9c9.4,0.4,19-0.4,28.4,0.4c3.9,1.8,7.3,4.4,10.6,6.7
	c-0.2,39,0.2,78.2-0.2,117.3c-4.1,9-9.4,17.7-14,26.6c-6.6,0-13.1,0-19.7,0c-5.5-8.3-9.9-17.6-16-25.7
	C266.1,514.3,266.1,475.5,266.1,436.6z"/>
<path fill="#0AB3FF" d="M287.2,457.6c2.3-1.4,7.5-2.1,7.3,2.1c0.2,19.7,0.2,39.4,0,59.1c0.5,4.4-7.5,4.4-6.9,0
	C287.2,498.4,287.6,478,287.2,457.6z"/>
<path fill="#0AB3FF" d="M273,459.3c2.5-1.2,7.5-2.1,7.1,2c0.2,19.7,0.2,39.4,0,59.1c0.5,4.4-7.5,4.4-6.9,0
	C273,500.1,273.4,479.7,273,459.3z"/>
<path fill="#0AB3FF" d="M304.2,459.2c2-2.5,6.6-0.9,6.2,2.3c0.2,19.7,0.2,39.4,0,59.1c0.5,4.3-7.5,4.3-6.9,0
	c0-20.2-0.4-40.4,0.2-60.7L304.2,459.2z"/>
<path fill="#00B0FF" d="M51.4,465.2c1.2,0,3.9,0,5.3,0c0,3.5,0,7.1,0,10.6c0.9,0,2.7,0,3.5,0c0-3.5,0-7.1,0-10.6c1.4,0,3.9,0,5.3,0
	c0,3.5,0,7.1,0,10.6c0.9,0,2.7,0,3.5,0c0-3.5,0-7.1,0-10.6c1.4,0,3.9,0,5.3,0c0,3.5,0,7.1,0,10.6c0.9,0,2.7,0,3.5,0
	c0-3.5,0-7.1,0-10.6c1.4,0,3.9,0,5.3,0c0,3.5,0,7.1,0,10.6c0.9,0,2.7,0,3.5,0c0-3.5,0-7.1,0-10.6c1.4,0,3.9,0,5.3,0
	c0,3.5,0,7.1,0,10.6c0.9,0,2.7,0,3.5,0c0-3.5,0-7.1,0-10.6c1.4,0,3.9,0,5.3,0c0,3.5,0,7.1,0,10.6c0.9,0,2.7,0,3.5,0
	c0-3.5,0-7.1,0-10.6c1.4,0,3.9,0,5.3,0c0,3.5,0,7.1,0,10.6c0.9,0,2.7,0,3.5,0c0-3.5,0-7.1,0-10.6c1.4,0,3.9,0,5.3,0
	c0,3.5,0,7.1,0,10.6c0.9,0,2.7,0,3.5,0c0-3.5,0-7.1,0-10.6c1.4,0,3.9,0,5.3,0c0,3.5,0,7.1,0,10.6c0.9,0,2.7,0,3.5,0
	c0-3.5,0-7.1,0-10.6c1.4,0,3.9,0,5.3,0c0,3.5,0,7.1,0,10.6c0.9,0,2.7,0,3.5,0c0-3.5,0-7.1,0-10.6c1.4,0,3.9,0,5.3,0
	c0,3.5,0,7.1,0,10.6c0.9,0,2.7,0,3.5,0c0-3.5,0-7.1,0-10.6c1.4,0,3.9,0,5.3,0c0,3.5,0,7.1,0,10.6c0.9,0,2.7,0,3.5,0
	c0-3.5,0-7.1,0-10.6c1.4,0,3.9,0,5.3,0c0,3.5,0,7.1,0,10.6c0.9,0,2.7,0,3.5,0c0-3.5,0-7.1,0-10.6c1.4,0,3.9,0,5.3,0
	c0,3.5,0,7.1,0,10.6c0.9,0,2.7,0,3.5,0c0-3.5,0-7.1,0-10.6c1.4,0,3.9,0,5.3,0c0,3.5,0,7.1,0,10.6c0.9,0,2.7,0,3.5,0
	c0-3.5,0-7.1,0-10.6c1.4,0,3.9,0,5.3,0c0,3.5,0,7.1,0,10.6c0.9,0,2.7,0,3.5,0c0-3.5,0-7.1,0-10.6c1.4,0,3.9,0,5.3,0
	c0,3.5,0,7.1,0,10.6c0.9,0,2.7,0,3.5,0c0-3.5,0-7.1,0-10.6c1.4,0,3.9,0,5.3,0c0,3.5,0,7.1,0,10.6c1.4,0,4.1,0,5.3,0v1.8
	c-2.3,0-4.8,0-7.1,0c0-3.5,0-7.1,0-10.6H204c0,3.5,0,7.1,0,10.6c-2.3,0-4.8,0-7.1,0c0-3.5,0-7.1,0-10.6h-1.8c0,3.5,0,7.1,0,10.6
	c-2.3,0-4.8,0-7.1,0c0-3.5,0-7.1,0-10.6h-1.8c0,3.5,0,7.1,0,10.6c-2.3,0-4.8,0-7.1,0c0-3.5,0-7.1,0-10.6h-1.8c0,3.5,0,7.1,0,10.6
	c-2.3,0-4.8,0-7.1,0c0-3.5,0-7.1,0-10.6h-1.8c0,3.5,0,7.1,0,10.6c-2.3,0-4.8,0-7.1,0c0-3.5,0-7.1,0-10.6l-1.8,0.2
	c0,3.5,0,7.1,0,10.6c-2.3,0-4.8,0-7.1,0c0-3.5,0-7.1,0-10.6l-1.8,0.2c0,3.5,0,7.1,0,10.6c-2.3,0-4.8,0-7.1,0c0-3.5,0-7.1,0-10.6
	h-1.8c0,3.5,0,7.1,0,10.6c-2.3,0-4.8,0-7.1,0c0-3.5,0-7.1,0-10.6H133c0,3.5,0,7.1,0,10.6c-2.3,0-4.8,0-7.1,0c0-3.5,0-7.1,0-10.6
	h-1.8c0,3.5,0,7.1,0,10.6c-2.3,0-4.8,0-7.1,0c0-3.5,0-7.1,0-10.6h-1.8c0,3.5,0,7.1,0,10.6c-2.3,0-4.8,0-7.1,0c0-3.5,0-7.1,0-10.6
	l-1.8-0.2c0,3.5,0,7.1,0,10.6c-2.3,0-4.8,0-7.1,0c0-3.5,0-7.1,0-10.6l-1.8,0.2c0,3.5,0,7.1,0,10.6c-2.3,0-4.8,0-7.1,0
	c0-3.5,0-7.1,0-10.6h-1.8c0,3.5,0,7.1,0,10.6c-2.3,0-4.8,0-7.1,0c0-3.5,0-7.1,0-10.8l-1.8,0.2c0,3.5,0,7.1,0,10.5
	c-2.3,0-4.8,0-7.1,0c0-3.5,0-7.1,0-10.6H71c0,3.5,0,7.1,0,10.6c-2.3,0-4.8,0-7.1,0c0-3.5,0-7.1,0-10.6l-1.8-0.2c0,3.5,0,7.1,0,10.6
	c-2.3,0-4.8,0-7.1,0c0-3.5,0-7.1,0-10.6l-1.8,0.2c0,3.5,0,7.1,0,10.5c-0.9,0.2-2.8,0.2-3.7,0.4C52.2,474.2,51.4,469.4,51.4,465.2z"
	/>
<path fill="#00B0FF" d="M370.7,465.2c1.2,0,3.9,0,5.3,0c0,3.5,0,7.1,0,10.6c0.9,0,2.7,0,3.5,0c0-3.5,0-7.1,0-10.6c1.4,0,3.9,0,5.3,0
	c0,3.5,0,7.1,0,10.6c0.9,0,2.7,0,3.5,0c0-3.5,0-7.1,0-10.6c1.4,0,3.9,0,5.3,0c0,3.5,0,7.1,0,10.6c0.9,0,2.7,0,3.5,0
	c0-3.5,0-7.1,0-10.6c1.4,0,3.9,0,5.3,0c0,3.5,0,7.1,0,10.6c0.9,0,2.7,0,3.5,0c0-3.5,0-7.1,0-10.6c1.4,0,3.9,0,5.3,0
	c0,3.5,0,7.1,0,10.6c0.9,0,2.7,0,3.5,0c0-3.5,0-7.1,0-10.6c1.4,0,3.9,0,5.3,0c0,3.5,0,7.1,0,10.6c0.9,0,2.7,0,3.5,0
	c0-3.5,0-7.1,0-10.6c1.4,0,3.9,0,5.3,0c0,3.5,0,7.1,0,10.6c0.9,0,2.7,0,3.5,0c0-3.5,0-7.1,0-10.6c1.4,0,3.9,0,5.3,0
	c0,3.5,0,7.1,0,10.6c0.9,0,2.7,0,3.5,0c0-3.5,0-7.1,0-10.6c1.4,0,3.9,0,5.3,0c0,3.5,0,7.1,0,10.6c0.9,0,2.7,0,3.5,0
	c0-3.5,0-7.1,0-10.6c1.4,0,3.9,0,5.3,0c0,3.5,0,7.1,0,10.6c0.9,0,2.7,0,3.5,0c0-3.5,0-7.1,0-10.6c1.4,0,3.9,0,5.3,0
	c0,3.5,0,7.1,0,10.6c0.9,0,2.7,0,3.5,0c0-3.5,0-7.1,0-10.6c1.4,0,3.9,0,5.3,0c0,3.5,0,7.1,0,10.6c0.9,0,2.7,0,3.5,0
	c0-3.5,0-7.1,0-10.6c1.4,0,3.9,0,5.3,0c0,3.5,0,7.1,0,10.6c0.9,0,2.7,0,3.5,0c0-3.5,0-7.1,0-10.6c1.4,0,3.9,0,5.3,0
	c0,3.5,0,7.1,0,10.6c0.9,0,2.7,0,3.5,0c0-3.5,0-7.1,0-10.6c1.4,0,3.9,0,5.3,0c0,3.5,0,7.1,0,10.6c0.9,0,2.7,0,3.5,0
	c0-3.5,0-7.1,0-10.6c1.4,0,3.9,0,5.3,0c0,3.5,0,7.1,0,10.6c0.9,0,2.7,0,3.5,0c0-3.5,0-7.1,0-10.6c1.4,0,3.9,0,5.3,0
	c0,3.5,0,7.1,0,10.6c0.9,0,2.7,0,3.5,0c0-3.5,0-7.1,0-10.6c1.4,0,3.9,0,5.3,0c0,3.5,0,7.1,0,10.6c0.9,0,2.7,0,3.5,0
	c0-3.5,0-7.1,0-10.6c1.4,0,3.9,0,5.3,0c0,3.5,0,7.1,0,10.6c0.9,0,2.7,0,3.5,0c0-3.5,0-7.1,0-10.6c1.4,0,3.9,0,5.3,0
	c0,3.5,0,7.1,0,10.6c0.9,0,2.7,0,3.5,0c0-3.5,0-7.1,0-10.6c1.4,0,3.9,0,5.3,0c0,3.5,0,7.1,0,10.6c0.9,0,2.7,0,3.5,0
	c0-3.5,0-7.1,0-10.6c1.4,0,3.9,0,5.3,0c0,3.5,0,7.1,0,10.6c0.9,0,2.7,0,3.5,0c0-3.5,0-7.1,0-10.6c1.4,0,3.9,0,5.3,0
	c0,3.5,0,7.1,0,10.6c1.4,0,3.9,0,5.3,0c0-3.5,0-7.1,0-10.6c1.4,0,3.9,0,5.3,0c0,3.5,0,7.1,0,10.6c0.9,0,2.7,0,3.5,0
	c0-3.5,0-7.1,0-10.6c1.4,0,3.9,0,5.3,0c0,3.5,0,7.1,0,10.6c1.4,0,3.9,0,5.3,0v1.8c-2.5,0-4.8,0-7.1,0c0-3.5,0-7.1,0-10.6h-1.8
	c0,3.5,0,7.1,0,10.6c-2.3,0-4.8,0-7.1,0c0-3.5,0-7.1,0-10.6l-1.8,0.2c0,3.5,0,7.1,0,10.6c-3,0-5.9,0-8.9,0c0-3.5,0-7.1,0-10.6
	l-1.8-0.2c0,3.5,0,7.1,0,10.6c-2.3,0-4.8,0-7.1,0c0-3.5,0-7.1,0-10.6l-1.8-0.2c0,3.5,0,7.1,0,10.6c-2.3,0-4.8,0-7.1,0
	c0-3.5,0-7.1,0-10.6h-1.8c0,3.5,0,7.1,0,10.6c-2.3,0-4.8,0-7.1,0c0-3.5,0-7.1,0-10.6H541c0,3.5,0,7.1,0,10.6c-2.3,0-4.8,0-7.1,0
	c0-3.5,0-7.1,0-10.6h-1.8c0,3.5,0,7.1,0,10.6c-2.3,0-4.8,0-7.1,0c0-3.5,0-7.1,0-10.6h-1.8c0,3.5,0,7.1,0,10.6c-2.3,0-4.8,0-7.1,0
	c0-3.5,0-7.1,0-10.6h-1.8c0,3.5,0,7.1,0,10.6c-2.3,0-4.8,0-7.1,0c0-3.5,0-7.1,0-10.6l-1.8,0.2c0,3.5,0,7.1,0,10.6
	c-2.3,0-4.8,0-7.1,0c0-3.5,0-7.1,0-10.6h-1.8c0,3.5,0,7.1,0,10.6c-2.3,0-4.8,0-7.1,0c0-3.5,0-7.1,0-10.6l-1.8,0.2
	c0,3.5,0,7.1,0,10.6c-2.3,0-4.8,0-7.1,0c0-3.5,0-7.1,0-10.6H479c0,3.5,0,7.1,0,10.6c-2.3,0-4.8,0-7.1,0c0-3.5,0-7.1,0-10.6h-1.8
	c0,3.5,0,7.1,0,10.6c-2.3,0-4.8,0-7.1,0c0-3.5,0-7.1,0-10.6l-1.8-0.2c0,3.5,0,7.1,0,10.6c-2.3,0-4.8,0-7.1,0c0-3.5,0-7.1,0-10.6
	h-1.8c0,3.5,0,7.1,0,10.6c-2.3,0-4.8,0-7.1,0c0-3.5,0-7.1,0-10.6h-1.8c0,3.5,0,7.1,0,10.6c-2.3,0-4.8,0-7.1,0c0-3.5,0-7.1,0-10.6
	l-1.8-0.2c0,3.5,0,7.1,0,10.6c-2.3,0-4.8,0-7.1,0c0-3.5,0-7.1,0-10.6h-1.8c0,3.5,0,7.1,0,10.6c-2.3,0-4.8,0-7.1,0
	c0-3.5,0-7.1,0-10.8l-1.8,0.2c0,3.5,0,7.1,0,10.6c-2.3,0-4.8,0-7.1,0c0-3.5,0-7.1,0-10.6H408c0,3.5,0,7.1,0,10.6c-2.3,0-4.8,0-7.1,0
	c0-3.5,0-7.1,0-10.6h-1.8c0,3.5,0,7.1,0,10.6c-2.3,0-4.8,0-7.1,0c0-3.5,0-7.1,0-10.6l-1.8-0.2c0,3.5,0,7.1,0,10.6
	c-2.3,0-4.8,0-7.1,0c0-3.5,0-7.1,0-10.6l-1.8,0.2c0,3.5,0,7.1,0,10.6c-2.3,0-4.8,0-7.1,0c0-3.5,0-7.1,0-10.6h-1.8
	c0,3.5,0,7.1,0,10.6c-0.9,0.2-2.8,0.4-3.7,0.4C371.5,474.2,370.6,469.4,370.7,465.2z"/>
<path fill="#0BB3FF" d="M16.7,467.7c2.1-1.8,5-0.2,4.6,2.7c0.2,11.9,0.4,23.8-0.2,35.7c-0.9,3.7-5.9,1.8-5.1-1.4
	C16.3,492.1,15.1,479.7,16.7,467.7z"/>
<path fill="#0BB3FF" d="M32.8,467.7c1.8-2.1,5.1,0.2,4.4,2.7c0.2,11.4,0.2,22.7,0,34.1c0.9,3.4-4.4,4.8-5,1.4
	c-0.4-12.4-0.4-24.8,0-37.3L32.8,467.7z"/>
<path fill="#29BDFF" d="M57.5,488.8c1.6-4.6,8.5-5.9,11.4-1.8c3.9,5.5,3.9,12.6,4.3,19c0.2,14.7,0,29.6,0,44.3c-6,0-12.1,0-18.1,0
	c0-14.7,0-29.4,0-44.2C55,500.3,55.2,494.3,57.5,488.8z"/>
<path fill="#71D3FF" d="M90.1,488.2c1.4-4.3,6.2-3.5,9.6-4.1c6.2,6.9,6.4,16.5,6.7,25.4c0,13.7,0,27.1,0,40.8c-6.6,0-12.9,0-19.5,0
	c0-13.7,0-27.3,0-40.8C87.3,502.4,87.5,495,90.1,488.2z"/>
<path fill="#29BDFF" d="M122.9,488.8c1.6-4.4,8.5-5.9,11.2-2c3.5,5,3.9,11.4,4.3,17.2c0.2,15.4,0,30.7,0,46.1c-6,0-12.1,0-17.9,0
	c0-14.7,0-29.6,0-44.3C120.4,500.1,120.6,494.1,122.9,488.8z"/>
<path fill="#70D3FF" d="M155.6,488.1c1.4-4.1,6-3.4,9.4-3.9c6.2,6.2,6.4,15.3,6.9,23.4c0.2,14.2,0,28.4,0,42.6c-6.6,0-12.9,0-19.5,0
	c0-13.5,0-27.1,0-40.6C152.6,502.4,153.1,495,155.6,488.1z"/>
<path fill="#29BDFF" d="M189.3,487.5c2.1-3.7,8.3-4.1,10.6-0.5c3.5,5,3.9,11.4,4.3,17.2c0,15.4,0,30.7,0,46.1c-6,0-12.1,0-18.1,0
	c0-14.7,0-29.4,0-44.3C186.1,499.8,186.1,493.2,189.3,487.5z"/>
<path fill="#29BDFF" d="M373.8,487.9c2-3.9,8.3-4.4,10.8-0.9c3.9,5.5,3.9,12.6,4.3,19.2c0.2,14.7,0,29.4,0,44.2c-6,0-12.1,0-18.1,0
	c0-14.7,0-29.4,0-44.3C370.7,500,370.9,493.4,373.8,487.9z"/>
<path fill="#71D3FF" d="M405.9,488.4c1.4-4.3,6.2-3.5,9.6-4.1c6.4,6.7,6.6,16.7,6.9,25.4c0,13.5,0,27.1,0,40.6c-6.4,0-12.9,0-19.3,0
	c0-13.5,0-27.1,0-40.6C403,502.4,403.2,495.2,405.9,488.4z"/>
<path fill="#27BCFF" d="M438.7,488.8c1.4-4.6,8.5-5.9,11.4-1.8c3.5,5,3.9,11.4,4.1,17.4c0.2,15.3,0,30.7,0,45.9c-6,0-12.1,0-17.9,0
	c0-14.7,0-29.4,0-44.2C436.2,500.3,436.4,494.3,438.7,488.8z"/>
<path fill="#70D3FF" d="M471.5,488.1c1.4-4.1,6-3.4,9.4-3.9c6.2,6.2,6.4,15.3,6.9,23.4c0.2,14.2,0,28.4,0,42.6c-6.6,0-12.9,0-19.5,0
	c0-13.7,0-27.3,0-41C468.3,502.3,468.8,494.8,471.5,488.1z"/>
<path fill="#29BDFF" d="M505,487.5c2.3-3.7,8.3-4.1,10.6-0.4c3.4,5,3.9,11.2,4.1,17c0,15.4,0,30.7,0,46.1c-6,0-12.1,0-18.1,0
	c0-14.7,0-29.6,0-44.3C502,499.8,501.8,493,505,487.5z"/>
<path fill="#71D3FF" d="M538.9,488.1c1.4-4.1,6-3.4,9.4-3.9c6.2,6.2,6.4,15.4,6.9,23.6c0.2,14.2,0,28.4,0,42.6c-6.6,0-12.9,0-19.5,0
	c0-13.7,0-27.1,0-40.8C535.7,502.3,536.3,495,538.9,488.1z"/>
<path fill="#2FBEFF" d="M572.4,487.4c2.3-3.5,8.3-4.1,10.6-0.2c3.4,5,3.9,11.2,4.1,17c0,15.4,0,30.9,0,46.1c-6,0-12.1,0-18.1,0
	c0-14.7,0-29.4,0-44.2C569.4,499.8,569.1,493,572.4,487.4z"/>
</svg>
