<?xml version="1.0" encoding="utf-8"?>
<!-- Generator: Adobe Illustrator 16.2.1, SVG Export Plug-In . SVG Version: 6.00 Build 0)  -->
<!DOCTYPE svg PUBLIC "-//W3C//DTD SVG 1.0//EN" "http://www.w3.org/TR/2001/REC-SVG-20010904/DTD/svg10.dtd">
<svg version="1.0" id="Layer_1" xmlns="http://www.w3.org/2000/svg" xmlns:xlink="http://www.w3.org/1999/xlink" x="0px" y="0px"
	 width="381px" height="269px" viewBox="0 0 381 269" enable-background="new 0 0 381 269" xml:space="preserve">
<path fill="#43A8DF" d="M339.96,114.812c-0.096-0.101-9.638-10.215-12.283-20.311l-0.422-1.611l-0.535,1.578
	c-0.049,0.145-4.987,14.537-12.092,20.083l-0.533,0.416l3.904,2.734v34.884h-5.774v-43.482l3.553-3.356l-0.607-0.329
	c-0.162-0.087-16.207-8.979-16.207-27.184l-0.999-0.038c-0.017,0.222-1.851,22.253-16.339,27.083l-0.775,0.258l4.354,4.275v33.507
	h-61.732V64.902h-9.912v6.416h-7.91v-6.416h-10.98v6.772h-9.337v-6.416h-12.05v6.06h-7.198V38.774
	c2.492-0.179,14.484-0.799,16.88,3.695l0.941,1.765V24.027l-0.372-0.099c-0.485-0.128-11.674-3.064-18.52-2.889V15h-2.782v24.595
	h-16.396v12.262l1.782,6.132v85.405H68.774v-40.042l2.139-2.852V84.507h-28.09v17.859l2.852,2.139V234h1V104.005l-2.852-2.139
	V85.507h26.09v14.661l-2.139,2.852v41.375h80.843V57.917l-1.782-6.132v-11.19h16.396V16h0.782v6.087l0.526-0.027
	c5.951-0.316,16.281,2.211,18.365,2.74v15.974c-4.326-4.144-16.794-3.012-17.369-2.958l-0.453,0.043v34.459h9.198v-6.06h10.05v6.416
	h11.337v-6.772h8.98v6.416h9.91v-6.416h7.912v78.417h63.732v-34.927l-3.501-3.438c10.385-3.984,14.236-16.478,15.585-23.237
	c2.042,13.913,13.13,21.565,15.819,23.231l-2.882,2.724v44.913h7.774v-36.404l-3.234-2.266c5.785-4.905,9.959-14.923,11.378-18.679
	c2.795,8.672,9.811,16.763,11.648,18.786l-3.327,1.764v117.256h1V117.387l3.37-1.786l0.541-0.351L339.96,114.812z"/>
</svg>
