<?xml version="1.0" encoding="utf-8"?>
<!-- Generator: Adobe Illustrator 16.2.1, SVG Export Plug-In . SVG Version: 6.00 Build 0)  -->
<!DOCTYPE svg PUBLIC "-//W3C//DTD SVG 1.0//EN" "http://www.w3.org/TR/2001/REC-SVG-20010904/DTD/svg10.dtd">
<svg version="1.0" id="Layer_1" xmlns="http://www.w3.org/2000/svg" xmlns:xlink="http://www.w3.org/1999/xlink" x="0px" y="0px"
	 width="381px" height="269px" viewBox="0 0 381 269" enable-background="new 0 0 381 269" xml:space="preserve">
<g>
	<g>
		<g>
			<path fill="none" d="M172.611,203.521"/>
		</g>
	</g>
</g>
<g opacity="0.4">
	<g>
		<g>
			<path fill="none" d="M150.814,54.151"/>
		</g>
	</g>
</g>
<g opacity="0.4">
	<g>
		<g>
			<path fill="none" d="M159.449,54.524"/>
		</g>
	</g>
</g>
<g opacity="0.4">
	<path fill="none" stroke="#46A8DF" stroke-miterlimit="10" d="M306.251,84.054"/>
</g>
<polyline fill="none" stroke="#43A8DF" stroke-miterlimit="10" points="339.6,115.159 335.964,117.086 335.964,234.041 "/>
<path class="castle-path" fill="none" stroke="#43A8DF" stroke-miterlimit="10" d="M46.175,234V104.255l-2.852-2.139V85.007h27.09v15.327l-2.139,2.852
	v40.709h79.843v-3.283V57.917l-1.782-6.06V40.095h10.693h5.703V15.5h1.782v6.06c6.772-0.356,18.892,2.852,18.892,2.852v8.198v9.624
	c-2.852-5.347-17.822-3.921-17.822-3.921V52.57v19.248h8.198v-6.06h11.05v6.416h2.852h7.485v-1.782v-4.99h9.98v6.416h8.911V68.61
	v-3.208h8.911v78.417h62.733v-34.218l-3.92-3.849c14.971-4.99,16.68-27.519,16.68-27.519c0,18.713,16.469,27.624,16.469,27.624
	l-3.208,3.03v44.198h6.775v-35.644l-3.564-2.496c7.305-5.702,12.259-20.316,12.259-20.316c2.709,10.337,12.404,20.528,12.404,20.528
	"/>
</svg>
