<?xml version="1.0" encoding="utf-8"?>
<!-- Generator: Adobe Illustrator 17.1.0, SVG Export Plug-In . SVG Version: 6.00 Build 0)  -->
<!DOCTYPE svg PUBLIC "-//W3C//DTD SVG 1.1//EN" "http://www.w3.org/Graphics/SVG/1.1/DTD/svg11.dtd">
<svg version="1.1" id="Layer_1" xmlns="http://www.w3.org/2000/svg" xmlns:xlink="http://www.w3.org/1999/xlink" x="0px" y="0px"
	 width="381px" height="269px" viewBox="0 0 381 269" enable-background="new 0 0 381 269" xml:space="preserve">
<g>
	<g>
		<g>
			<path fill="none" d="M172.6,203.5"/>
		</g>
	</g>
</g>
<g opacity="0.4">
	<g>
		<g>
			<path fill="none" d="M150.8,54.2"/>
		</g>
	</g>
</g>
<g opacity="0.4">
	<g>
		<g>
			<path fill="none" d="M159.4,54.5"/>
		</g>
	</g>
</g>
<g opacity="0.4">
	<path fill="none" stroke="#46A8DF" stroke-miterlimit="10" d="M306.3,84.1"/>
</g>
<path fill="none" stroke="#43A8DF" stroke-miterlimit="10" d="M339.6,115.2l-3.6,1.9v117 M46.2,234V104.3l-2.9-2.1V85h27.1v15.3
	l-2.1,2.9v40.7h79.8v-3.3V57.9l-1.8-6.1V40.1H157h5.7V15.5h1.8v6.1c6.8-0.4,18.9,2.9,18.9,2.9v8.2v9.6c-2.9-5.3-17.8-3.9-17.8-3.9
	v14.3v19.2h8.2v-6.1h11.1v6.4h2.9h7.5v-1.8v-5h10v6.4h8.9v-3.2v-3.2h8.9v78.4h62.7v-34.2l-3.9-3.8c15-5,16.7-27.5,16.7-27.5
	c0,18.7,16.5,27.6,16.5,27.6l-3.2,3v44.2h6.8v-35.6l-3.6-2.5c7.3-5.7,12.3-20.3,12.3-20.3c2.7,10.3,12.4,20.5,12.4,20.5"/>
</svg>
