<?xml version="1.0" encoding="utf-8"?>
<!-- Generator: Adobe Illustrator 17.1.0, SVG Export Plug-In . SVG Version: 6.00 Build 0)  -->
<!DOCTYPE svg PUBLIC "-//W3C//DTD SVG 1.1//EN" "http://www.w3.org/Graphics/SVG/1.1/DTD/svg11.dtd">
<svg version="1.1" id="Layer_1" xmlns="http://www.w3.org/2000/svg" xmlns:xlink="http://www.w3.org/1999/xlink" x="0px" y="0px"
	 viewBox="0 0 381 269" enable-background="new 0 0 381 269" xml:space="preserve">
<path fill="none" stroke="#43A8DF" stroke-miterlimit="10" d="M49.8,233.8V104.3l-1.8-2.8V85h27.2v15.8l-1.8,2.8v40.5h74.8V57.7
	l-1.8-5.5V40h16V15.3h2v6c7.8,0,19.3,3.2,19.3,3.2v18.3c-5.2-6.7-18.7-4.5-18.7-4.5v34h9.3v-6.2h10v6.2h11v-6.5h9.3v6.3h9.8v-6.5
	h8.5v78h63.2v-34l-4-3.8c15.8-9.3,16.3-26.5,16.3-26.5c3,20.7,16.8,26.5,16.8,26.5l-3.5,3.2v43.8h6.7v-35.3l-3.3-2.7
	c8.5-7.2,11.8-20.7,11.8-20.7c0.8,7.7,12.5,21.2,12.5,21.2l-3.5,1.8v116.7"/>
</svg>
